{"title":"Ungli (2014) [1CD] DVDSCR Rip Xvid Mp3 Team TellyTNT Exclusive","uid":11588642,"size":733916170,"categoryP":"video","categoryS":"hd___movies","magnet":"?xt=urn:btih:61be5b2d150051b0ae6672ddb67094a4f3c8d816&amp;dn=Ungli+%282014%29+%5B1CD%5D+DVDSCR+Rip+Xvid+Mp3+Team+TellyTNT+Exclusive&amp;tr=udp%3A%2F%2Ftracker.openbittorrent.com%3A80&amp;tr=udp%3A%2F%2Fopen.demonii.com%3A1337&amp;tr=udp%3A%2F%2Ftracker.coppersurfer.tk%3A6969&amp;tr=udp%3A%2F%2Fexodus.desync.com%3A6969","seeders":11,"leechers":3,"uploader":"inovai","files":15,"time":1417203495,"description":"Ungli (2014) [1CD] DVDSCR Rip Xvid Mp3 Team TellyTNT Exclusive\n\nCover:\n &lt;a href=&quot;\nhttp://forum.primetimeshow.in/viewtopic.php?f=7&amp;t=826&quot; rel=&quot;nofollow&quot; target=&quot;_NEW&quot;&gt;\nhttp://forum.primetimeshow.in/viewtopic.php?f=7&amp;t=826&lt;/a&gt;\n\nScreenshots:\n &lt;a href=&quot;\nhttp://m.primetimeshow.in/share-4910_5478BF43.html&quot; rel=&quot;nofollow&quot; target=&quot;_NEW&quot;&gt;\nhttp://m.primetimeshow.in/share-4910_5478BF43.html&lt;/a&gt;\n &lt;a href=&quot;\nhttp://m.primetimeshow.in/share-9E55_5478BF43.html&quot; rel=&quot;nofollow&quot; target=&quot;_NEW&quot;&gt;\nhttp://m.primetimeshow.in/share-9E55_5478BF43.html&lt;/a&gt;\n &lt;a href=&quot;\nhttp://m.primetimeshow.in/share-4ADC_5478BF43.html&quot; rel=&quot;nofollow&quot; target=&quot;_NEW&quot;&gt;\nhttp://m.primetimeshow.in/share-4ADC_5478BF43.html&lt;/a&gt;\n &lt;a href=&quot;\nhttp://m.primetimeshow.in/share-F411_5478BF43.html&quot; rel=&quot;nofollow&quot; target=&quot;_NEW&quot;&gt;\nhttp://m.primetimeshow.in/share-F411_5478BF43.html&lt;/a&gt;\n &lt;a href=&quot;\nhttp://m.primetimeshow.in/share-8FD5_5478BF43.html&quot; rel=&quot;nofollow&quot; target=&quot;_NEW&quot;&gt;\nhttp://m.primetimeshow.in/share-8FD5_5478BF43.html&lt;/a&gt;\n\nMovie:............Ungli\nSource: ..........DVDSCR @ Team TellyTNT\nYear:.............2014\n\nGeneral\nComplete name : D:Ungli.avi\nFormat : AVI\nFormat/Info : Audio Video Interleave\nFile size : 697 MiB\nDuration : 1h 56mn\nOverall bit rate : 836 Kbps\n\nVideo\nID : 0\nFormat : MPEG-4 Visual\nFormat profile : Advanced Simple@L5\nFormat settings, BVOP : 2\nFormat settings, QPel : No\nFormat settings, GMC : No warppoints\nFormat settings, Matrix : Default (H.263)\nCodec ID : XVID\nCodec ID/Hint : XviD\nDuration : 1h 56mn\nBit rate : 734 Kbps\nWidth : 640 pixels\nHeight : 272 pixels\nDisplay aspect ratio : 2.35:1\nFrame rate : 23.976 fps\nColor space : YUV\nChroma subsampling : 4:2:0\nBit depth : 8 bits\nScan type : Progressive\nCompression mode : Lossy\nBits/(Pixel*Frame) : 0.176\nStream size : 612 MiB (88%)\nWriting library : XviD 1.2.1 (UTC 2008-12-04)\n\nAudio\nID : 1\nFormat : MPEG Audio\nFormat version : Version 1\nFormat profile : Layer 3\nMode : Joint stereo\nMode extension : MS Stereo\nCodec ID : 55\nCodec ID/Hint : MP3\nDuration : 1h 56mn\nBit rate mode : Constant\nBit rate : 96.0 Kbps\nChannel(s) : 2 channels\nSampling rate : 32.0 KHz\nCompression mode : Lossy\nStream size : 80.0 MiB (11%)\nAlignment : Aligned on interleaves\nInterleave, duration : 167 ms (4.00 video frames)\nInterleave, preload duration : 216 ms\nTitle : ungli T01 2_0ch 192Kbps DELAY 0ms\nWriting library : LAME3.99r\nEncoding settings : -m j -V 4 -q 2 -lowpass 15.1 -b 96\n\n\nThanks to Team TellyTNT!!\n\nSeed n ENjoy!!","torrent":{"xt":"urn:btih:61be5b2d150051b0ae6672ddb67094a4f3c8d816","amp;dn":"Ungli+%282014%29+%5B1CD%5D+DVDSCR+Rip+Xvid+Mp3+Team+TellyTNT+Exclusive","amp;tr":["udp%3A%2F%2Ftracker.openbittorrent.com%3A80","udp%3A%2F%2Fopen.demonii.com%3A1337","udp%3A%2F%2Ftracker.coppersurfer.tk%3A6969","udp%3A%2F%2Fexodus.desync.com%3A6969"],"infoHash":"61be5b2d150051b0ae6672ddb67094a4f3c8d816","infoHashBuffer":{"type":"Buffer","data":[97,190,91,45,21,0,81,176,174,102,114,221,182,112,148,164,243,200,216,22]},"announce":[],"urlList":[]}}